#!OML:ASF F:\twosubjects\two\Thursday\Session 1\Rory.ASF
:FULLY-SPECIFIED
:DEGREES
438
root 9.04198 13.5489 5.02664 -116.875 -85.4533 102.782
lowerback 37.5131 1.51356 -0.539415
upperback 10.565 0.126816 -1.42048
thorax -6.77819 -0.50272 -1.19683
lowerneck -10.2913 -7.07943 -9.21482
upperneck 32.1247 -14.3543 13.5921
head 14.5087 -6.19924 4.72887
rclavicle -2.88238e-015 1.21259e-014
rhumerus -1.51204 20.7729 -84.32
rradius 53.4148
rwrist 16.7825
rhand -39.2232 37.739
rfingers 7.12502
rthumb -12.2189 8.11592
lclavicle -2.88238e-015 1.21259e-014
lhumerus 9.22915 -8.82042 84.2205
lradius 42.2283
lwrist 84.8917
lhand 28.8409 49.0783
lfingers 7.12502
lthumb 52.6619 68.7824
rfemur -56.1709 -8.92537 7.8407
rtibia 66.6982
rfoot 7.84783 -5.52869
rtoes 0.273708
lfemur -53.8506 7.79258 -14.871
ltibia 61.3461
lfoot 9.37726 0.855482
ltoes 18.0578
439
root 9.03945 13.5356 5.02894 -115.329 -85.5415 101.304
lowerback 37.2464 1.5048 -0.211416
upperback 10.6422 0.231559 -1.55777
thorax -6.59959 -0.443616 -1.55267
lowerneck -10.5514 -7.12412 -8.69442
upperneck 31.788 -14.4879 13.7367
head 14.4072 -6.16597 4.65041
rclavicle -1.59028e-015 -4.96962e-016
rhumerus -1.23651 19.8144 -84.584
rradius 52.8855
rwrist 17.6001
rhand -38.6119 38.9764
rfingers 7.12502
rthumb -11.6294 9.31909
lclavicle -1.59028e-015 -4.96962e-016
lhumerus 9.22915 -8.82042 84.2205
lradius 42.2283
lwrist 84.8917
lhand 28.8409 49.0783
lfingers 7.12502
lthumb 52.6619 68.7824
rfemur -56.2674 -9.00217 7.82497
rtibia 66.6855
rfoot 7.90375 -5.49372
rtoes 0.00549571
lfemur -53.9915 7.76885 -15.0559
ltibia 61.2569
lfoot 9.57432 0.350252
ltoes 13.5885
440
root 9.04721 13.546 5.03139 -115.042 -86.1028 101.038
lowerback 36.9205 1.21794 0.319536
upperback 10.6716 0.0956132 -1.4263
thorax -6.45661 -0.500519 -1.64168
lowerneck -10.6838 -6.98131 -8.92507
upperneck 31.5952 -14.249 14.0001
head 14.3582 -6.05777 4.83363
rclavicle 6.75868e-015 -1.21259e-014
rhumerus -1.04616 19.7971 -84.9504
rradius 51.9694
rwrist 19.2576
rhand -39.9659 39.9958
rfingers 7.12502
rthumb -12.9349 10.4167
lclavicle 6.75868e-015 -1.21259e-014
lhumerus 9.22915 -8.82042 84.2205
lradius 42.2283
lwrist 84.8917
lhand 28.8409 49.0783
lfingers 7.12502
lthumb 52.6619 68.7824
rfemur -56.0969 -9.02399 8.26237
rtibia 66.6074
rfoot 7.81559 -5.88022
rtoes 1.56737
lfemur -54.0795 7.42245 -14.3327
ltibia 61.2957
lfoot 9.6736 0.703877
ltoes 18.7351
441
root 9.05248 13.546 5.03348 -116.624 -86.4117 102.412
lowerback 36.9379 1.1722 0.492996
upperback 10.6282 0.12388 -1.24415
thorax -6.50719 -0.488371 -1.55037
lowerneck -10.8103 -6.87174 -9.21253
upperneck 31.6409 -14.0896 14.2007
head 14.4274 -5.99656 4.99739
rclavicle 8.94531e-015 1.15295e-014
rhumerus -1.11913 20.0756 -85.1353
rradius 51.2033
rwrist 21.0061
rhand -42.8608 39.5528
rfingers 7.12502
rthumb -15.7243 10.1716
lclavicle 8.94531e-015 1.15295e-014
lhumerus 9.22915 -8.82042 84.2205
lradius 42.2283
lwrist 84.8917
lhand 28.8409 49.0783
lfingers 7.12502
lthumb 52.6619 68.7824
rfemur -55.824 -8.82943 8.47534
rtibia 66.645
rfoot 7.66197 -6.45868
rtoes 4.52763
lfemur -53.8624 7.43669 -14.0519
ltibia 61.2202
lfoot 9.7054 1.27588
ltoes 19.9289
442
root 9.06346 13.541 5.03223 -117.344 -86.2656 103.03
lowerback 36.9079 1.36878 0.277776
upperback 10.5849 0.304843 -1.1791
thorax -6.54122 -0.40378 -1.43568
lowerneck -11.0847 -6.93003 -9.1468
upperneck 31.6292 -14.1605 14.1931
head 14.4915 -6.00286 4.96022
rclavicle -7.85199e-015 2.78299e-015
rhumerus -1.03225 19.8321 -85.0569
rradius 50.8574
rwrist 21.4295
rhand -42.9213 39.3618
rfingers 7.12502
rthumb -15.7826 9.98519
lclavicle -7.85199e-015 2.78299e-015
lhumerus 9.22915 -8.82042 84.2205
lradius 42.2283
lwrist 84.8917
lhand 28.8409 49.0783
lfingers 7.12502
lthumb 52.6619 68.7824
rfemur -55.8886 -8.70275 8.30541
rtibia 66.7855
rfoot 7.60069 -6.61459
rtoes 6.7926
lfemur -53.7358 7.645 -14.2782
ltibia 61.1178
lfoot 9.75648 1.80983
ltoes 21.2692
